<svg width="200" height="100" viewBox="0 0 200 100" xmlns="http://www.w3.org/2000/svg">
  <path d="M10 70 Q 5 50, 20 50 T 40 50 L 70 50 L 80 40 L 120 40 L 130 50 L 170 50 Q 185 50, 190 70 L 190 80 H 10 Z" fill="#4ade80" />
  <path d="M40 50 L 70 50 L 80 40 L 120 40 L 130 50" fill="none" stroke="#a7f3d0" stroke-width="8" stroke-linecap="round" />
  <circle cx="40" cy="80" r="10" fill="#3f3f46" />
  <circle cx="160" cy="80" r="10" fill="#3f3f46" />
  <circle cx="40" cy="80" r="4" fill="#e5e7eb" />
  <circle cx="160" cy="80" r="4" fill="#e5e7eb" />
  
  <!-- Person 1 -->
  <circle cx="145" cy="25" r="8" fill="#facc15" />
  <path d="M140 33 C 140 43, 150 43, 150 33" fill="#65a30d"/>
  <path d="M150 35 L 160 20" stroke="#f43f5e" stroke-width="4" stroke-linecap="round" />

  <!-- Person 2 -->
  <circle cx="165" cy="30" r="7" fill="#f9a8d4" />
  <path d="M162 37 C 162 45, 168 45, 168 37" fill="#be185d"/>
  
</svg>
